{
  "accessors": [
    {
      "bufferView": 2,
      "componentType": 5126,
      "count": 65532,
      "max": [
        0.9377685785293579,
        0.7752265930175781,
        4.825699806213379
      ],
      "min": [
        -0.9349159002304077,
        -1.073992371559143,
        0.0031828880310058594
      ],
      "type": "VEC3"
    },
    {
      "bufferView": 2,
      "byteOffset": 786384,
      "componentType": 5126,
      "count": 65532,
      "max": [
        0.9999963641166687,
        0.999995768070221,
        0.9999598860740662
      ],
      "min": [
        -0.999987006187439,
        -0.9999903440475464,
        -0.9993113875389099
      ],
      "type": "VEC3"
    },
    {
      "bufferView": 1,
      "componentType": 5126,
      "count": 65532,
      "max": [
        0.9999669790267944,
        0.9792150259017944
      ],
      "min": [
        0.0003589999978430569,
        0.0003659999929368496
      ],
      "type": "VEC2"
    },
    {
      "bufferView": 1,
      "byteOffset": 524256,
      "componentType": 5126,
      "count": 65532,
      "max": [
        0.0,
        0.0
      ],
      "min": [
        0.0,
        0.0
      ],
      "type": "VEC2"
    },
    {
      "bufferView": 0,
      "componentType": 5125,
      "count": 374682,
      "type": "SCALAR"
    },
    {
      "bufferView": 2,
      "byteOffset": 1572768,
      "componentType": 5126,
      "count": 6811,
      "max": [
        0.9358898997306824,
        0.41665953397750854,
        4.824713230133057
      ],
      "min": [
        -0.7997799515724182,
        -1.0645891427993774,
        3.0563740730285645
      ],
      "type": "VEC3"
    },
    {
      "bufferView": 2,
      "byteOffset": 1654500,
      "componentType": 5126,
      "count": 6811,
      "max": [
        0.9999963641166687,
        0.9968060255050659,
        0.9995172619819641
      ],
      "min": [
        -0.9999581575393677,
        -0.999876856803894,
        -0.9906400442123413
      ],
      "type": "VEC3"
    },
    {
      "bufferView": 1,
      "byteOffset": 1048512,
      "componentType": 5126,
      "count": 6811,
      "max": [
        0.9949650168418884,
        0.9738579988479614
      ],
      "min": [
        0.00010299999848939478,
        0.007133000064641237
      ],
      "type": "VEC2"
    },
    {
      "bufferView": 1,
      "byteOffset": 1103000,
      "componentType": 5126,
      "count": 6811,
      "max": [
        0.0,
        0.0
      ],
      "min": [
        0.0,
        0.0
      ],
      "type": "VEC2"
    },
    {
      "bufferView": 0,
      "byteOffset": 1498728,
      "componentType": 5125,
      "count": 24717,
      "type": "SCALAR"
    }
  ],
  "asset": {
    "extras": {
      "author": "Darky_7 (https://sketchfab.com/davidoff)",
      "license": "CC-BY-4.0 (http://creativecommons.org/licenses/by/4.0/)",
      "source": "https://sketchfab.com/3d-models/wooden-mannequin-hand-7f0604327c8e4dada1bef3839723114f",
      "title": "Wooden mannequin hand"
    },
    "generator": "Sketchfab-15.63.0",
    "version": "2.0"
  },
  "bufferViews": [
    {
      "buffer": 0,
      "byteLength": 1597596,
      "name": "floatBufferViews",
      "target": 34963
    },
    {
      "buffer": 0,
      "byteLength": 1157488,
      "byteOffset": 1597596,
      "byteStride": 8,
      "name": "floatBufferViews",
      "target": 34962
    },
    {
      "buffer": 0,
      "byteLength": 1736232,
      "byteOffset": 2755084,
      "byteStride": 12,
      "name": "floatBufferViews",
      "target": 34962
    }
  ],
  "buffers": [
    {
      "byteLength": 4491316,
      "uri": "scene.bin"
    }
  ],
  "images": [
    {
      "uri": "textures/3DModel_baseColor.png"
    }
  ],
  "materials": [
    {
      "doubleSided": true,
      "name": "3DModel",
      "pbrMetallicRoughness": {
        "baseColorTexture": {
          "index": 0
        },
        "metallicFactor": 0.0,
        "roughnessFactor": 0.7885257473118872
      }
    }
  ],
  "meshes": [
    {
      "name": "Hand.Smoothed_3DModel_0",
      "primitives": [
        {
          "attributes": {
            "NORMAL": 1,
            "POSITION": 0,
            "TEXCOORD_0": 2,
            "TEXCOORD_1": 3
          },
          "indices": 4,
          "material": 0,
          "mode": 4
        }
      ]
    },
    {
      "name": "Hand.Smoothed_3DModel_0",
      "primitives": [
        {
          "attributes": {
            "NORMAL": 6,
            "POSITION": 5,
            "TEXCOORD_0": 7,
            "TEXCOORD_1": 8
          },
          "indices": 9,
          "material": 0,
          "mode": 4
        }
      ]
    }
  ],
  "nodes": [
    {
      "children": [
        1
      ],
      "matrix": [
        1.0,
        0.0,
        0.0,
        0.0,
        0.0,
        2.220446049250313e-16,
        -1.0,
        0.0,
        0.0,
        1.0,
        2.220446049250313e-16,
        0.0,
        0.0,
        0.0,
        0.0,
        1.0
      ],
      "name": "Sketchfab_model"
    },
    {
      "children": [
        2
      ],
      "matrix": [
        1.0,
        0.0,
        0.0,
        0.0,
        0.0,
        0.0,
        1.0,
        0.0,
        0.0,
        -1.0,
        0.0,
        0.0,
        0.0,
        0.0,
        0.0,
        1.0
      ],
      "name": "hand.fbx"
    },
    {
      "children": [
        3
      ],
      "name": "RootNode"
    },
    {
      "children": [
        4,
        5
      ],
      "matrix": [
        1.0,
        0.0,
        0.0,
        0.0,
        0.0,
        -1.6292067939183141e-07,
        -0.9999999999999868,
        0.0,
        0.0,
        0.9999999999999868,
        -1.6292067939183141e-07,
        0.0,
        0.0,
        0.0,
        0.0,
        1.0
      ],
      "name": "Hand.Smoothed"
    },
    {
      "mesh": 0,
      "name": "Hand.Smoothed_3DModel_0"
    },
    {
      "mesh": 1,
      "name": "Hand.Smoothed_3DModel_0"
    }
  ],
  "samplers": [
    {
      "magFilter": 9729,
      "minFilter": 9987,
      "wrapS": 10497,
      "wrapT": 10497
    }
  ],
  "scene": 0,
  "scenes": [
    {
      "name": "Sketchfab_Scene",
      "nodes": [
        0
      ]
    }
  ],
  "textures": [
    {
      "sampler": 0,
      "source": 0
    }
  ]
}
